<?xml version="1.0" encoding="UTF-8" standalone="no"?><!DOCTYPE svg PUBLIC "-//W3C//DTD SVG 1.1//EN" "http://www.w3.org/Graphics/SVG/1.1/DTD/svg11.dtd"><svg width="100%" height="100%" viewBox="0 0 3200 3400" version="1.1" xmlns="http://www.w3.org/2000/svg" xmlns:xlink="http://www.w3.org/1999/xlink" xml:space="preserve" xmlns:serif="http://www.serif.com/" style="fill-rule:evenodd;clip-rule:evenodd;stroke-linecap:round;stroke-linejoin:round;stroke-miterlimit:1.5;"><rect id="Artboard2" x="0" y="0" width="3200" height="3400" style="fill:none;"/><path d="M1112.97,127.211c-728.995,111.957 -998.129,1589.12 -665.786,1891.99c186.995,170.409 842.333,-350.062 1101.55,-541.485c259.212,-191.422 466.012,-377.392 465.579,-549.133c-0.749,-297.394 -403.716,-877.796 -901.338,-801.372Z" style="fill:#ff7083;fill-opacity:0.46;"/><path d="M1266.68,2120.99c-38.975,-497.803 1363.27,-923.343 1549.62,-414.892c483.625,1319.59 -1453.99,1636.25 -1549.62,414.892Z" style="fill:#87dec3;fill-opacity:0.78;"/><g><path d="M1860.72,306.736c91.122,-14.768 165.371,-14.964 240.853,0.441c51.89,10.59 111.17,29.108 207.85,70.988c58.688,25.422 94.444,50.53 102.062,55.879c54.746,38.443 86.954,79.332 141.849,166.228c27.197,43.05 65.285,105.858 98.091,190.519c0.001,0.003 8.354,22.371 17.246,52.98c8.826,30.382 13.994,54.305 16.185,64.61c0.602,2.835 2.639,17.13 2.852,18.622c6.393,44.863 8.147,81.359 8.797,102.709c0.002,0.083 0.347,21.684 -0.937,50.861c-2.992,67.992 -11.948,118.856 -14.432,133.558c-8.897,52.659 -25.627,132.921 -39.326,180.508c-23.273,80.841 -53.515,133.326 -114.592,207.666c-0.535,0.651 -40.917,49.77 -80.071,92.717c-43.581,47.804 -104.721,109.667 -179.931,158.106c-111.743,71.967 -305.875,96.635 -327.559,99.551c-27.51,3.7 -106.979,13.533 -185.593,13.533c-119.428,0.001 -192.363,-21.724 -257.073,-47.222c-54.927,-21.644 -125.256,-55.445 -153.953,-71.447c-100.822,-56.218 -165.696,-135.839 -208.346,-207.381c-23.454,-39.341 -40.142,-76.145 -55.421,-115.019c-1.682,-4.279 -20.922,-52.745 -39.72,-121.284c-3.403,-12.408 -22.074,-73.214 -34.988,-154.222c-4.666,-29.272 -16.768,-99.529 -14.682,-191.614c1.378,-60.893 7.842,-206.489 96.136,-350.399c76.215,-124.224 174.98,-185.57 230.84,-219.121c31.71,-19.047 133.836,-79.164 252.677,-119.802c25.324,-8.66 62.192,-20.177 112.562,-31.52c28.09,-6.325 57.242,-9.106 85.465,-13.307c29.696,-4.421 58.486,-10.286 93.159,-17.138Zm4.197,33.791c-50.928,2.775 -79.645,6.376 -121.004,16.5c-29.641,7.255 -29.5,7.821 -59.289,14.443c-25.484,5.664 -102.98,23.376 -170.222,44.745c-81.828,26.004 -153.139,58.556 -217.71,107.306c-61.157,46.173 -103.502,93.822 -111.567,102.898c-86.928,97.818 -160.061,233.273 -170.907,432.305c-1.097,20.126 -0.935,43.598 -0.909,47.39c0.575,83.588 12.544,150.385 13.611,156.615c9.986,58.321 22.787,105.796 30.654,133.149c1.105,3.843 25.962,84.977 54.097,143.801c41.159,86.052 88.681,147.775 135.506,196.224c5.73,5.928 52.322,55.223 122.2,102.581c33.512,22.712 75.2,45.394 142.56,62.355c52.081,13.113 130.356,24.747 185.099,30.004c100.825,9.683 194.453,7.14 302.609,-17.946c20.993,-4.869 104.611,-24.455 191.03,-67.006c34.061,-16.77 51.864,-28.657 77.833,-46.496c95.081,-65.312 167.261,-130.232 217.514,-215.047c26,-43.88 41.226,-81.274 81.99,-167.975c29.835,-63.457 55.546,-118.943 67.429,-204.993c0.986,-7.139 6.153,-45.456 6.818,-92.987c0.626,-44.764 -2.724,-76.465 -3.701,-89.836c-4.479,-61.282 -14.183,-103.454 -15.338,-110.843c-9.313,-59.612 -22.278,-100.177 -25.334,-111.159c-34.647,-124.505 -89.194,-190.381 -100.959,-204.596c-27.363,-33.059 -55.62,-57.137 -104.669,-102.169c-35.312,-32.421 -64.936,-59.142 -104.629,-85.344c-71.517,-47.211 -157.485,-65.937 -267.666,-73.98c-80.495,-5.876 -133.538,-1.57 -155.035,0.06l-0.011,0.001Z"/><path d="M1668.97,1956.75c-0.697,-0.232 -4.694,-1.563 -6.924,-6.021c-0.687,-1.372 -1.129,-2.904 -1.242,-4.434c-0.117,-1.575 0.23,-3.16 0.565,-4.702c0.039,-0.181 1.639,-4.235 9.818,-31.568c14.487,-48.413 26.059,-92.323 26.158,-92.671c1.891,-6.625 23.445,-75.425 40.233,-150.105c17.217,-76.587 22.163,-120.485 24.032,-135.932c0.155,-1.281 2.676,-26.734 3.73,-43.892c3.02,-49.192 7.061,-154.542 -15.233,-274.235c-0.712,-3.822 -4.596,-25.727 -12.771,-59.494c-3.662,-15.129 -4.006,-15.038 -6.208,-24.895c-0.592,-2.65 -2.149,-9.624 -7.873,-33.013c-7.593,-31.03 -16.834,-60.703 -23.121,-77.742c-5.971,-16.186 -7.315,-19.083 -8.063,-20.695c-11.745,-25.315 -50.348,-105.933 -130.349,-194.032c-18.598,-20.48 -32.213,-34.215 -57.113,-58.285c-70.2,-67.861 -138.852,-113.234 -167.931,-131.858c-51.239,-32.818 -93.453,-54.099 -94.076,-54.594c-1.236,-0.981 -2.683,-1.743 -3.704,-2.945c-3.163,-3.723 -2.833,-7.885 -2.776,-8.606c0.4,-5.042 3.681,-7.816 4.25,-8.298c3.729,-3.152 7.885,-2.831 8.606,-2.776c1.574,0.122 3.082,0.723 4.565,1.264c1.114,0.407 16.406,8.314 17.826,9.049c141.553,73.199 220.968,145.715 259.841,183.917c2.234,2.194 15.291,15.74 22.092,23.289c46.88,52.035 98.744,121.986 141.872,217.847c1.182,2.627 4.432,9.616 9.123,20.586c1.968,4.602 4.229,8.525 11.925,25.62c4.055,9.006 17.044,35.713 32.512,79.609c1.229,3.488 8.164,25.268 9.467,30.641c8.305,34.222 33.725,143.539 23.261,310.615c-0.258,4.126 -1.328,25.051 -5.405,66.888c-1.667,17.099 -1.856,17.07 -3.596,34.17c-0.177,1.743 -3.392,32.306 -5.877,52.307c-3.194,25.706 -10.911,89.472 -30.188,179.378c-3.822,17.824 -11.947,51.753 -12.456,53.536c-18.084,63.307 -30.433,96.293 -39.792,124.476c-0.231,0.697 -1.561,4.7 -6.024,6.934c-4.458,2.231 -8.457,0.899 -9.154,0.667Z"/><path d="M1803.4,1965.09c-0.865,-0.278 -5.784,-1.856 -8.621,-7.372c-0.876,-1.703 -1.451,-3.602 -1.626,-5.509c-0.181,-1.962 0.228,-3.944 0.58,-5.883c0.317,-1.75 27.9,-76.054 55.868,-182.619c10.035,-38.233 18.463,-77.6 19.915,-84.382c11.604,-54.207 18.842,-97.933 24.734,-144.638c6.455,-51.159 7.879,-91.859 8.16,-99.871c1.989,-56.825 -0.745,-100.583 -1.753,-116.245c-6.977,-108.404 -25.362,-183.454 -35.525,-222.923c-13.039,-50.643 -37.869,-127.367 -64.683,-187.674c-8.738,-19.652 -58.443,-138.078 -163.433,-249.634c-1.978,-2.102 -20.632,-21.501 -32.775,-32.559c-10.692,-9.737 -60.954,-56.025 -144.795,-106.207c-45.684,-27.343 -82.458,-44.816 -82.792,-45.097c-1.211,-1.016 -2.636,-1.823 -3.632,-3.051c-0.456,-0.562 -3.087,-3.806 -2.643,-8.647c0.068,-0.741 0.458,-4.996 4.366,-8.211c0.559,-0.46 3.788,-3.116 8.647,-2.643c1.57,0.152 3.064,0.784 4.53,1.362c0.645,0.254 13.412,7.745 14.574,8.426c13.925,8.171 85.114,49.695 158.336,111.034c27.319,22.886 38.367,33.282 60.023,52.981c0.663,0.604 29.294,26.568 56.241,54.938c38.505,40.539 96.397,106.515 149.267,208.418c10.868,20.948 21.447,45.239 23.185,49.23c20.964,48.136 32.303,90.573 33.646,95.387c2.142,7.677 8.487,30.723 15.755,66.964c3.51,17.502 6.886,40.312 7.406,43.829c14.478,97.821 13.183,179.11 11.737,228.146c-1.142,38.705 -6.435,134.363 -18.261,222.68c-3.525,26.323 -13.389,103.331 -39.876,216.964c-15.249,65.421 -31.033,119.987 -37.771,143.137c-1.69,5.808 -6.549,8.307 -7.361,8.725c-5.518,2.838 -10.55,1.224 -11.423,0.944Z"/><path d="M1937.54,1945.72c-0.702,-0.212 -4.736,-1.43 -7.091,-5.823c-0.725,-1.353 -1.21,-2.871 -1.366,-4.398c-0.161,-1.57 0.134,-3.166 0.432,-4.716c0.662,-3.438 33.844,-105.549 61.136,-234.783c52.154,-246.962 46.206,-413.543 36.273,-517.63c-9.483,-99.377 -27.76,-168.23 -40.447,-210.33c-1.205,-3.996 -7.957,-25.404 -14.504,-43.141c-19.379,-52.501 -43.28,-99.232 -68.965,-141.699c-25.529,-42.208 -53.714,-78.259 -58.797,-84.76c-26.511,-33.909 -95.396,-118.247 -218.804,-204.484c-11.98,-8.372 -52.596,-39.483 -116.597,-77.501c-2.78,-1.652 -2.795,-1.628 -2.905,-1.722c-1.196,-1.028 -2.613,-1.845 -3.586,-3.086c-3.012,-3.842 -2.509,-7.993 -2.422,-8.711c0.609,-5.029 3.998,-7.664 4.587,-8.121c3.852,-2.995 7.993,-2.507 8.712,-2.423c1.568,0.185 3.05,0.847 4.513,1.444c-0,-0 9.386,5.044 20.876,11.513c55.497,31.244 90.082,55.837 101.008,63.553c0.08,0.057 17.092,12.637 38.068,29.784c55.267,45.18 155.281,135.391 234.112,275.937c6.934,12.363 31.525,55.913 55.76,116.318c10.398,25.917 32.884,81.712 51.052,155.184c24.135,97.597 32.853,184.958 33.437,277.439c1.415,223.912 -48.979,442.172 -96.895,605.371c-0.3,1.023 -2.631,8.776 -2.636,8.785c-0.748,1.39 -1.245,2.948 -2.248,4.168c-0.459,0.558 -3.105,3.776 -7.969,4.272c-2.396,0.245 -2.424,0.258 -4.734,-0.44Z"/><path d="M2017.96,1934.95c-0.703,-0.212 -4.736,-1.43 -7.092,-5.823c-0.725,-1.353 -1.209,-2.871 -1.366,-4.398c-0.161,-1.57 0.134,-3.166 0.432,-4.716c0.288,-1.495 0.88,-2.916 1.318,-4.374c2.681,-8.92 3.621,-10.512 14.392,-42.799c0.417,-1.251 5.157,-14.928 16.108,-50.826c1.231,-4.034 2.937,-9.225 10.88,-37.825c0.38,-1.37 8.719,-37.536 13.737,-62.921c2.98,-15.075 26.127,-127.934 37.885,-266.671c0.818,-9.658 3.407,-42.041 4.973,-70.982c0.282,-5.223 1.513,-27.963 2.491,-65.338c0.191,-7.288 1.093,-41.748 -0.015,-91.136c-0.948,-42.202 -3.903,-100.125 -9.894,-152.325c-0.988,-8.609 -5.901,-58.375 -20.037,-123.853c-27.687,-128.241 -72.133,-214.545 -91.913,-250.664c-39.837,-72.746 -80.454,-121.812 -104.957,-149.835c-10.39,-11.884 -24.608,-26.452 -26.802,-28.7c-15.137,-15.51 -21.969,-21.726 -23.957,-23.534c-8.95,-8.142 -18.39,-16.606 -37.784,-31.953c-9.983,-7.899 -39.811,-30.293 -69.794,-49.363c-46.835,-29.789 -85.113,-48.773 -85.463,-49.082c-1.184,-1.049 -2.587,-1.894 -3.55,-3.148c-0.441,-0.574 -2.987,-3.887 -2.423,-8.712c0.087,-0.738 0.583,-4.978 4.573,-8.096c0.57,-0.445 3.867,-3.02 8.712,-2.422c0.378,0.047 2.623,0.324 4.518,1.496c8.825,5.459 53.357,32.273 109.094,75.661c12.694,9.882 34.173,26.92 72.497,61.369c7.043,6.331 6.965,6.41 11.501,10.438c3.818,3.39 27.276,23.899 59.504,57.658c86.401,90.506 132.353,176.876 151.173,214.297c36.55,72.678 55.432,136.71 59.415,149.932c7.292,24.203 18.949,65.164 29.366,126.095c7.566,44.252 17.946,122.062 14.729,223.455c-1.456,45.906 -4.294,77.3 -4.899,84.004c-5.292,58.548 -12.105,104.477 -19.602,147.778c-19.393,112.007 -49.01,218.183 -55.991,244.341c-7.386,27.676 -12.034,43.541 -12.6,45.93c-4.393,18.539 -4.534,18.496 -8.199,34.16c-1.058,4.521 -1.93,8.249 -13.563,56.426c-4.915,20.355 -9.028,36.535 -9.821,39.671c-0.148,0.584 -2.087,6.995 -2.619,8.76c-0.212,0.704 -1.428,4.742 -5.825,7.1c-4.394,2.356 -8.429,1.137 -9.132,0.925Z"/><path d="M1645.77,889.421c-0.074,0.731 -0.499,4.922 -4.367,8.074c-1.19,0.97 -2.588,1.734 -4.057,2.178c-0.639,0.193 -2.957,0.893 -8.344,0.048c-44.907,-7.045 -82.632,-18.453 -111.505,-28.477c-30.91,-10.731 -57.197,-22.193 -80.869,-32.322c-0.624,-0.267 -38.837,-16.826 -61.43,-27.684c-23.675,-11.377 -50.168,-25.6 -67.437,-36.219c-11.364,-6.988 -17.144,-10.695 -32.554,-21.595c-0.5,-0.354 -12.334,-9.307 -18.32,-14.172c-16.433,-13.354 -54.733,-45.075 -99.31,-99.401c-5.164,-6.293 -2.386,-12.193 -1.932,-13.156c0.318,-0.675 2.142,-4.548 6.933,-6.251c0.681,-0.243 4.637,-1.649 9.03,0.466c0.506,0.244 1.781,0.858 5.404,4.481c2.819,2.82 32.506,33.017 77.786,69.623c9.499,7.68 25.875,20.739 38.669,30.405c4.385,3.312 7.143,5.705 17.534,13.595c1.159,0.88 23.805,18.615 40.353,30.624c8.943,6.49 28.054,20.147 54.07,36.009c1.855,1.131 15.958,9.399 25.956,14.487c15.514,7.894 33.615,16.879 70.169,29.339c3.599,1.227 20.059,6.525 34.015,10.22c12.024,3.184 40.312,10.482 76.801,14.643c9.515,1.084 22.022,1.718 22.705,1.932c1.506,0.471 3.131,0.664 4.519,1.417c0.635,0.345 4.297,2.332 5.711,7.009c0.697,2.304 0.713,2.329 0.47,4.727Z"/><path d="M1719.66,1028.52c-0.052,0.732 -0.346,4.934 -4.115,8.205c-1.159,1.006 -2.533,1.813 -3.988,2.302c-1.496,0.503 -3.119,0.525 -4.695,0.617c-2.104,0.123 -42.312,-4.454 -89.469,-15.995c-25.714,-6.294 -25.689,-6.364 -27.948,-6.803c-10.358,-2.011 -10.314,-2.2 -20.678,-4.149c-1.875,-0.352 -21.962,-4.223 -36.614,-7.469c-35.058,-7.764 -54.669,-14.265 -68.065,-18.756c-0.177,-0.059 -8.079,-2.382 -33.473,-12.634c-9.654,-3.898 -23.229,-10.482 -25.223,-11.449c-23.062,-11.185 -47.498,-25.597 -51.539,-27.98c-36.044,-21.257 -70.113,-43.448 -117.818,-78.471c-10.791,-7.922 -51.982,-39.146 -89.803,-70.559c-28.622,-23.773 -52.349,-44.485 -60.641,-51.73c-1.753,-1.532 -1.148,-1.906 -0.557,-4.155c0.527,-2.007 3.851,-0.693 4.163,-0.569c0.014,0.006 38.311,26.106 90.321,58.883c88.14,55.548 157.351,91 174.78,100.001c3.289,1.699 16.796,8.674 41.411,20.655c9.771,4.756 31.17,15.05 33.883,16.355c19.321,9.295 24.085,12.111 40.445,20.063c4.881,2.372 10.238,5.324 23.551,11.821c6.822,3.33 50.981,26.065 84.596,38.428c1.698,0.625 15.294,5.101 16.466,5.429c5.429,1.518 37.146,9.33 78.965,12.971c20.555,1.789 33.925,1.888 34.942,2.173c1.52,0.425 3.15,0.567 4.561,1.276c0.646,0.326 4.368,2.199 5.926,6.83c0.767,2.28 0.784,2.306 0.616,4.71Z"/><path d="M1760.82,1147.94c0.045,0.733 0.302,4.941 -3.002,8.674c-1.018,1.149 -2.274,2.129 -3.652,2.805c-2.779,1.363 -2.871,1.128 -5.965,1.312c-4.204,0.251 -4.2,0.058 -8.394,-0.288c-11.986,-0.991 -11.957,-1.231 -23.922,-2.392c-11.343,-1.101 -11.308,-1.352 -22.654,-2.5c-9.104,-0.921 -9.078,-1.17 -14.272,-1.439c-6.318,-0.327 -28.127,-1.695 -48.074,-3.917c-15.647,-1.743 -66.988,-6.876 -139.976,-27.685c-3.601,-1.027 -24.144,-7.271 -37.187,-11.811c-18.883,-6.572 -54.786,-19.473 -104.498,-45.556c-46.081,-24.177 -80.167,-45.674 -112.764,-67.065c-0.983,-0.645 -32.829,-21.759 -60.767,-40.993c-4.087,-2.814 -32.84,-22.277 -60.316,-43.161c-42.302,-32.152 -68.084,-55.419 -82.216,-68.419c-3.529,-3.247 -3.523,-7.74 -3.522,-8.474c0.002,-1.537 0.298,-3.106 0.887,-4.526c1.94,-4.677 5.896,-6.288 6.586,-6.569c4.501,-1.833 8.372,-0.26 9.042,0.012c2.886,1.173 2.827,1.335 4.933,3.626c41.253,44.879 79.551,76.671 100.726,93.73c43.315,34.898 77.03,54.493 86.253,59.943c0.032,0.02 32.895,20.061 85.762,45.313c13.846,6.613 27.26,12.836 58.87,26.318c7.824,3.338 69.883,29.251 114.91,44.898c12.766,4.436 67.01,24.341 133.772,36.505c3.968,0.723 20.337,3.401 29.972,4.492c11.151,1.263 20.751,1.986 20.77,1.987c0.524,0.015 13.54,0.004 17.24,-0.233c20.418,-1.308 27.561,-2.683 30.132,-3.083c12.231,-1.902 13.277,-2.441 15.957,-2.593c2.47,-0.141 2.468,-0.19 2.681,-0.16c1.563,0.22 3.198,0.145 4.689,0.663c0.683,0.237 4.618,1.603 6.771,5.993c1.06,2.162 1.081,2.185 1.228,4.593Z"/><path d="M1536.16,1242.78c-0.589,5.241 -3.874,7.879 -4.465,8.353c-1.18,0.948 -2.582,1.68 -4.048,2.058c-3.275,0.843 -3.319,0.416 -6.644,-0.166c-6.445,-1.129 -39.786,-6.971 -80.046,-16.793c-32.723,-7.984 -63.803,-17.788 -71.513,-19.6c-6.332,-1.487 -6.296,-1.607 -12.659,-2.948c-6.497,-1.368 -6.471,-1.461 -12.842,-2.767c-28.917,-5.93 -54.466,-13.165 -65.513,-16.844c-8.813,-2.936 -8.815,-2.922 -17.406,-6.439c-1.125,-0.46 -14.685,-6.031 -39.324,-21.674c-21.269,-13.502 -40.504,-27.201 -67.833,-49.198c-4.791,-3.856 -4.743,-3.908 -7.91,-6.419c-8.078,-6.405 -7.983,-6.51 -16.047,-12.936c-17.489,-13.935 -33.741,-28.173 -36.616,-30.692c-51.544,-45.157 -87.801,-88.973 -95.023,-97.579c-3.093,-3.684 -2.531,-8.12 -2.439,-8.849c0.193,-1.525 0.682,-3.044 1.442,-4.38c2.505,-4.398 6.635,-5.507 7.354,-5.7c4.698,-1.261 8.339,0.782 8.97,1.136c2.814,1.579 2.694,1.776 4.581,4.4c55.969,77.835 105.261,117.806 122.872,131.777c2.979,2.364 11.969,9.011 18.326,13.225c0.409,0.271 21.452,14.82 56.426,32.567c2.797,1.42 12.931,6.562 35.423,16.792c13.281,6.04 18.311,7.862 34.204,16.649c4.849,2.681 4.876,2.61 9.715,5.327c20.353,11.429 44.443,23.332 60.689,29.993c7.929,3.252 7.942,3.211 16.063,5.953c1.198,0.405 18.417,5.817 51.323,11.159c22.915,3.72 49.002,7.241 90.609,9.701c0.945,0.056 7.312,0.432 11.816,0.637c0.72,0.032 4.927,0.223 8.016,4.118c0.471,0.593 3.089,3.894 2.499,9.139Z"/><path d="M1304.6,1336.59c-0.254,0.671 -1.667,4.405 -6.211,6.455c-1.409,0.635 -2.958,1.029 -4.502,1.117c-3.702,0.213 -3.713,-0.086 -7.041,-1.727c-30.156,-14.87 -55.513,-24.901 -74.165,-34.13c-1.916,-0.948 -14.52,-6.951 -30.011,-15.235c-1.628,-0.87 -8.318,-4.448 -20.049,-11.416c-19.115,-11.355 -51.405,-32.924 -73.996,-50.766c-12.102,-9.558 -19.322,-17.463 -31.787,-30.695c-4.843,-5.14 -16.89,-18.462 -20.215,-21.814c-5.461,-5.505 -5.633,-5.323 -11.992,-9.754c-0.011,-0.008 -3.672,-2.438 -10.225,-6.806c-3.92,-2.612 -20.035,-12.895 -20.094,-12.966c-1.012,-1.2 -2.231,-2.277 -2.944,-3.676c-2.204,-4.323 -0.804,-8.341 -0.566,-9.024c1.706,-4.893 5.659,-6.855 6.347,-7.196c0.648,-0.321 4.46,-2.213 9.024,-0.565c1.477,0.533 2.849,1.411 4.015,2.461c0.039,0.035 24.457,29.561 30.221,34.531c4.873,4.202 16.163,11.577 32.718,23.015c20.165,13.931 22.091,15.005 41.777,32.946c19.593,17.854 36.504,33.837 57.38,50.056c27.112,21.066 44.271,26.706 58.693,31.527c10.512,3.514 32.297,9.129 35.124,9.857c2.48,0.64 12.911,3.328 30.958,8.187c5.043,1.357 6.969,5.625 7.286,6.329c0.306,0.678 2.05,4.546 0.255,9.289Z"/><path d="M1778.73,1400.45c1.675,4.673 -0.169,8.533 -0.486,9.198c-0.661,1.384 -1.6,2.671 -2.741,3.695c-2.618,2.35 -2.785,2.174 -6.225,2.918c-6.968,1.508 -18.641,3.29 -53.997,3.441c-28.255,0.12 -29.282,0.016 -50.627,1.582c-8.671,0.637 -8.665,0.63 -17.332,1.317c-21.887,1.737 -48.071,3.093 -59.418,3.225c-24.3,0.284 -30.108,-0.257 -56.077,-6.259c-10.172,-2.351 -25.797,-7.042 -29.938,-7.48c-7.837,-0.829 -18.436,-0.909 -29.388,-2.448c-2.129,-0.3 -6.645,-0.977 -11.537,-2.347c-1.767,-0.494 -3.644,-2.48 -3.907,-2.758c-3.351,-3.546 -3.222,-7.734 -3.2,-8.457c0.156,-5.069 3.28,-7.974 3.825,-8.481c3.554,-3.305 7.733,-3.215 8.457,-3.2c2.978,0.064 3.105,-0.067 5.543,1.649c9.185,6.464 25.011,12.352 31.187,13.858c0.492,0.121 2.563,0.793 8.886,1.018c2.394,0.085 8.909,0.317 29.942,-0.235c14.055,-0.369 18.326,-0.763 32.97,0.647c22.24,2.14 41.053,5.018 78.355,7.485c9.453,0.625 24.698,0.895 30.982,0.58c4.154,-0.209 25.359,-1.272 51.481,-7.241c17.29,-3.95 24.588,-7.398 26.605,-8.351c2.861,-1.352 2.898,-1.482 6.048,-1.291c0.722,0.043 4.89,0.296 8.159,3.896c1.605,1.768 1.625,1.787 2.433,4.039Z"/><path d="M1044.78,1395.81c-0.496,-0.533 -3.326,-3.571 -3.155,-8.545c0.053,-1.538 0.393,-3.096 1.017,-4.502c1.508,-3.405 1.849,-3.21 4.78,-5.507c25.803,-20.219 31.233,-33.692 42.856,-61.222c6.873,-16.278 23.012,-62.588 23.352,-62.978c1.037,-1.189 1.868,-2.598 3.116,-3.565c3.866,-2.993 8,-2.486 8.718,-2.398c4.989,0.611 7.526,3.947 7.97,4.53c2.899,3.813 2.472,7.999 2.398,8.719c-0.349,3.413 -0.451,3.475 -2.612,6.14c-12.83,15.822 -21.146,28.861 -28.07,44.269c-7.155,15.922 -10.334,35.822 -20.486,54.379c-2.616,4.782 -8.144,14.767 -22.91,31.25c-1.328,1.482 -3.707,2.367 -4.065,2.5c-4.582,1.704 -8.378,-0.012 -9.037,-0.31c-0.346,-0.157 -2.248,-1.017 -3.872,-2.76Z"/><path d="M1154.11,1396.75c-0.706,-0.2 -4.762,-1.352 -7.194,-5.692c-0.748,-1.336 -1.259,-2.841 -1.442,-4.361c-0.444,-3.689 -0.107,-3.722 1.445,-7.097c16.557,-35.99 19.796,-35.678 27.376,-47.922c3.811,-6.155 5.695,-14.034 6.001,-15.314c1.361,-5.688 1.896,-12.29 1.984,-13.367l0.15,-1.869c0.203,-2.556 0.783,-2.35 2.54,-4.217c3.351,-3.561 7.514,-3.707 8.236,-3.732c5.045,-0.177 8.179,2.771 8.722,3.282c3.561,3.35 3.707,7.513 3.732,8.236c0.142,4.053 -0.285,4.068 -2.675,7.337c-1.891,2.587 -1.879,2.591 -11.831,16.447c-10.404,14.487 -16.904,20.635 -21.486,54.015c-0.066,0.481 -0.054,0.477 -0.75,6.031c-0.219,1.748 -1.942,3.91 -2.178,4.207c-3.037,3.81 -7.173,4.297 -7.89,4.381c-2.392,0.281 -2.42,0.293 -4.74,-0.365Z"/><path d="M1129.78,1563.93c-0.448,3.446 -0.985,9.867 -0.938,22.091c0.01,2.657 -0.942,2.267 -2.747,4.214c-0.492,0.531 -3.444,3.716 -7.891,4.416c-0.689,0.108 -4.508,0.709 -8.393,-2.37c-0.567,-0.45 -3.832,-3.037 -4.416,-7.891c-0.003,-0.026 0.352,-4.739 0.358,-4.748c14.302,-23.248 12.767,-24.316 15.498,-26.605c0.666,-0.558 1.344,-0.928 2.008,-1.159c1.355,-6.641 -0.154,-14.298 -0.081,-14.447c0.33,-0.673 2.186,-4.467 6.723,-6.533c0.94,-0.428 7.134,-3.248 12.754,2.02c0.527,0.495 3.567,3.344 3.747,8.229c0.001,0.035 -0.745,4.703 -0.753,4.71c-3.755,3.497 -7.08,6.403 -12.192,13.817c-0.676,0.98 -1.812,3.005 -3.677,4.256Z"/><path d="M1148.14,1643.14c-0.502,-0.537 -3.378,-3.614 -3.207,-8.6c0.052,-1.535 0.397,-3.09 1.029,-4.489c0.651,-1.438 1.783,-2.607 2.746,-3.858c0.219,-0.286 0.478,-0.557 0.791,-0.736c1.118,-0.638 1.239,-0.353 2.37,-0.961c0.065,-0.035 2.274,-1.342 6.775,-3.924c10.254,-5.879 18.573,-12.651 20.089,-13.884c0.104,-0.085 17.142,-14.563 34.431,-34.929c26.774,-31.541 44.506,-65.794 59.63,-102.975c0.796,-1.958 2.546,-3.564 2.826,-3.821c0.533,-0.489 3.61,-3.312 8.472,-3.16c0.742,0.023 5.015,0.157 8.443,3.855c3.323,3.586 3.184,7.749 3.16,8.472c-0.094,2.835 -0.168,2.859 -1.462,5.391c-34.845,68.205 -66.385,99.178 -92.439,123.12c-13.271,12.195 -14.126,12.687 -16.759,15.514c-7.569,8.127 -10.149,11.128 -16.897,20.877c-0.403,0.583 -0.854,1.138 -1.207,1.753c-0.417,0.725 -0.654,1.546 -1.097,2.255c-0.043,0.069 -0.24,0.385 -0.748,0.696c-1.347,0.824 -2.561,1.921 -4.041,2.471c-0.678,0.251 -4.584,1.701 -9.037,-0.311c-2.192,-0.991 -2.222,-0.995 -3.868,-2.756Z"/><path d="M1242.86,1758.8c-0.499,-0.536 -3.354,-3.604 -3.183,-8.574c0.028,-0.802 0.184,-5.344 4.465,-8.977c13.351,-11.328 46.795,-47.909 87.548,-107.137c11.724,-17.038 22.287,-34.245 24.146,-37.273c9.062,-14.763 29.688,-50.673 46.702,-92.863c23.137,-57.377 24.677,-88.068 24.962,-98.135c0.058,-2.072 1.165,-4.205 1.34,-4.542c0.333,-0.642 2.254,-4.345 6.886,-5.86c0.706,-0.231 4.779,-1.563 9.264,0.746c4.347,2.237 5.636,6.198 5.86,6.886c0.955,2.933 0.821,2.992 0.393,6.048c-3.945,28.199 -16.944,69.744 -60.206,147.692c-3.279,5.907 -30.777,54.644 -48.296,83.487c-11.677,19.224 -11.584,19.274 -23.722,38.217c-14.461,22.569 -40.517,61.537 -58.654,80.308c-3.816,3.949 -8.355,3.794 -9.145,3.766c-4.995,-0.171 -7.86,-3.251 -8.36,-3.789Z"/><path d="M1342.67,1841.45c-0.5,-0.537 -3.372,-3.622 -3.201,-8.594c0.052,-1.534 0.396,-3.09 1.028,-4.49c0.268,-0.594 1.307,-2.898 5.311,-6.176c10.605,-8.683 21.861,-20.036 23.677,-21.867c20.263,-20.436 24.185,-26.08 30.89,-34.695c4.088,-5.252 25.372,-34.287 50.034,-72.29c1.294,-1.993 1.326,-1.968 16.313,-24.82c19.125,-29.162 43.061,-62.596 66.022,-104.912c4.118,-7.59 12.53,-24.251 17.272,-36.486c1.281,-3.306 15.308,-37.853 16.469,-71.31c0.739,-21.308 -3.933,-31.678 -3.968,-32.316c-0.087,-1.577 -0.474,-3.168 -0.258,-4.733c0.099,-0.717 0.67,-4.85 4.524,-7.829c0.588,-0.455 3.976,-3.073 8.976,-2.402c4.845,0.652 7.387,3.951 7.829,4.524c1.95,2.532 1.816,2.647 2.429,5.79c5.111,26.188 -1.066,58.683 -18.683,101.862c-10.84,26.567 -23.954,58.329 -45.862,99.219c-15.075,28.134 -24.524,42.89 -32.369,55.073c-2.599,4.035 -12.972,19.245 -22.797,32.256c-24.703,32.714 -39.661,49.928 -58.931,73.447c-7.659,9.348 -7.436,9.512 -20.37,26.911c-0.948,1.275 -11.903,15.863 -16.204,21.351c-7.597,9.694 -9.649,11.634 -10.604,12.537c-6.357,6.01 -12.641,3.169 -13.656,2.71c-0.346,-0.157 -2.25,-1.018 -3.871,-2.76Z"/><path d="M1455.43,1890.4c-0.497,-0.538 -3.366,-3.639 -3.196,-8.59c0.17,-4.962 3.224,-7.846 3.756,-8.349c4.707,-4.446 11.254,-9.9 31.016,-34.17c3.232,-3.97 18.805,-23.097 38.505,-51.115c24.322,-34.593 38.497,-59.616 42.153,-65.849c1.137,-1.937 11.2,-19.804 14.81,-26.561c12.417,-23.243 41.45,-78.178 66.801,-145.863c1.878,-5.013 5.758,-15.659 6.255,-17.022c19.769,-54.245 24.638,-86.9 19.561,-109.396c-1.784,-7.905 3.404,-11.903 4.243,-12.549c3.997,-3.08 8.256,-2.506 8.994,-2.407c4.841,0.653 7.387,3.952 7.829,4.524c0.334,0.433 1.588,2.057 2.694,6.287c8.378,32.035 -0.642,71.714 -7.996,97.433c-1.567,5.479 -6.901,22.548 -12.765,36.877c-2.604,6.362 -18.987,48.661 -65.748,126.372c-17.919,29.779 -35.154,56.185 -62.545,99.813c-22.434,35.731 -39.344,60.603 -42.876,65.798c-2.197,3.231 -17.173,25.257 -28.946,39.324c-3.4,4.062 -4.332,4.844 -5.558,6.002c-0.536,0.505 -3.608,3.403 -8.626,3.231c-0.734,-0.026 -5.014,-0.173 -8.361,-3.79Z"/><path d="M2472.36,1659.99c-0.531,0.819 -3.578,5.521 -10.06,6.903c-1.995,0.426 -4.112,0.483 -6.12,0.117c-0.651,-0.119 -3.529,-0.644 -7.546,-3.395c-0.013,-0.009 -22.419,-16.526 -31.885,-23.661c-59.957,-45.196 -99.488,-81.206 -117.712,-97.922c-69.828,-64.047 -104.595,-114.189 -126.514,-159.434c-2.335,-4.819 -0.567,-9.419 -0.274,-10.179c0.611,-1.591 1.538,-3.097 2.709,-4.334c3.857,-4.071 8.606,-4.176 9.432,-4.194c5.401,-0.119 8.774,3.048 9.359,3.597c2.902,2.726 2.544,3.015 4.076,6.698c28.624,68.829 76.872,118.915 101.368,142.89c0.845,0.827 12.94,12.382 21.405,19.663c17.142,14.741 48.704,40.879 106.143,76.657c29.821,18.574 40.037,23.669 40.929,24.545c1.499,1.471 3.307,2.684 4.493,4.417c0.544,0.793 3.673,5.362 2.508,11.754c-0.574,3.148 -0.568,3.189 -2.311,5.878Z"/><path d="M2509.14,1572.42c-3.558,-11.336 -35.794,-40.298 -43.358,-47.746c-32.473,-31.972 -37.555,-36.74 -40.887,-39.866c-9.816,-9.209 -17.551,-15.191 -37.178,-31.02c-44.63,-35.993 -59.297,-53.246 -61.175,-55.31c-4.277,-4.698 -6.195,-7.254 -11.137,-14.4c-0.252,-0.364 -6.914,-10.787 -9.993,-16.52c-6.28,-11.695 -9.923,-20.338 -10.025,-20.574c-0.955,-2.214 -1.181,-2.157 -1.472,-4.551c-0.088,-0.718 -0.592,-4.867 2.347,-8.733c0.452,-0.593 3.035,-3.991 8.08,-4.656c0.717,-0.095 4.884,-0.644 8.732,2.347c0.459,0.357 0.78,0.606 4.639,5.598c1.286,1.664 5.581,7.22 16.974,20.086c7.042,7.951 10.733,11.393 17.348,19.989c3.524,4.578 3.575,4.525 7.096,9.117c0.451,0.588 10.117,13.061 16.561,20.994c13.329,16.41 32.525,38.36 45.226,51.123c9.79,9.838 12.103,11.941 26.108,23.338c23.413,19.053 27.925,21.905 42.43,34.803c26.287,23.374 40.823,38.796 43.262,51.477c1.047,5.439 -1.498,9.004 -1.955,9.645c-0.892,1.249 -2.039,2.355 -3.339,3.171c-4.276,2.684 -8.465,1.705 -9.191,1.536c-3.08,-0.72 -3.938,-1.645 -4.189,-1.915c-3.162,-3.407 -1.723,-4.434 -4.847,-7.823l-0.03,0.006l-0.011,-0.049l-0.016,-0.067Z"/><path d="M2586.58,1437.52c-13.877,-5.509 -43.922,-12.785 -87.916,-38.775c-0.239,-0.141 -8.073,-5.121 -13.855,-9.222c-33.73,-23.924 -58.365,-50.403 -75.712,-71.784c-1.887,-2.326 -2.274,-2.321 -2.15,-5.312c0.002,-0.034 2.065,-4.52 2.082,-4.526c1.582,-0.592 3.064,-1.831 4.752,-1.76c3.536,0.147 3.07,1.368 17.005,13.633c37.549,33.048 68.676,49.736 84.68,58.971c40.313,23.263 75.011,32.73 84.636,38.478c12.39,7.4 6.932,18.104 6.917,18.125c-0.921,1.282 -1.643,2.748 -2.806,3.816c-0.532,0.49 -3.6,3.309 -8.486,3.125c-5.025,-0.189 -7.887,-3.332 -8.385,-3.878c-0.288,-0.317 -0.541,-0.614 -0.762,-0.891Zm-1.296,-11.958c-0.014,-0.096 -0.029,-0.194 -0.045,-0.295l-0.102,0.232l0.147,0.063Z"/><path d="M2358.37,1760.66c-1.815,2.766 -1.987,2.828 -5.227,3.5c-3.737,0.776 -3.813,0.306 -7.139,-1.559c-73.441,-41.16 -106.817,-67.836 -123.257,-81.254c-47.535,-38.795 -73.904,-83.605 -78.632,-91.448c-16.476,-27.333 -26.66,-54.298 -28.517,-59.217c-4.031,-10.671 -6.789,-19.288 -7.672,-22.053c-0.091,-0.285 -0.603,-1.889 0.148,-3.737c0.014,-0.034 2.406,-2.552 2.424,-2.551c1.161,0.014 2.406,-0.378 3.481,0.06c2.168,0.882 2.05,1.133 3.155,3.2c8.105,15.144 25.674,46.464 55.141,80.52c16.931,19.568 31.359,34.054 63.639,63.764c7.908,7.278 34.215,31.815 82.372,70.031c15.585,12.367 37.657,29.145 37.704,29.207c4.044,5.318 6.042,5.953 2.38,11.537Z"/><path d="M2236.01,1848.88c-1.262,1.392 -1.341,1.328 -3.093,2.003c-1.34,0.516 -2.796,0.945 -4.227,0.825c-5.375,-0.452 -6.394,1.803 -9.889,-2.306c-45.995,-54.083 -72.397,-77.461 -87.653,-98.263c-13.475,-18.375 -21.112,-34.034 -51.491,-84.557c-1.409,-2.344 -1.025,-2.497 -0.989,-5.234c0.009,-0.723 0.065,-5.013 3.076,-8.502c0.464,-0.539 3.067,-3.556 8.046,-3.772c1.06,-0.046 7.62,-0.33 11.33,6.875c0.444,0.863 14.48,43.025 23.152,64.506c11.458,28.385 21.964,43.387 43.383,61.462c10.649,8.986 18.164,14.686 31.13,24.207c13.901,10.207 33.146,23.557 36.051,25.572c2.165,1.502 2.036,1.677 3.158,4.064c2.08,4.425 0.686,8.35 0.444,9.032c-0.806,2.269 -0.807,2.3 -2.428,4.088Z"/><path d="M2679.45,1195.46c0.332,0.655 2.232,4.418 0.674,9.154c-0.479,1.458 -1.245,2.855 -2.243,4.021c-1.027,1.199 -2.406,2.055 -3.715,2.937c-0.501,0.338 -47.94,23.716 -98.014,45.924c-15.751,6.986 -15.748,6.976 -37.184,16.41c-9.059,3.987 -11.094,5.347 -55.453,24.171c-81.82,34.72 -138.007,51.38 -159.119,57.557c-2.96,0.867 -28.808,8.171 -52.977,13.803c-46.225,10.772 -90.674,18.236 -137.3,22.697c-8.396,0.803 -14.109,-4.045 -15.075,-4.865c-2.018,-1.713 -3.754,-3.843 -4.967,-6.195c-3.99,-7.732 -1.706,-14.774 -1.309,-15.995c2.597,-8.007 8.981,-11.314 10.089,-11.888c4.591,-2.378 4.74,-2.08 9.9,-2.446c58.944,-4.181 122.611,-14.089 203.119,-34.358c99.982,-25.172 174.883,-55.534 180.662,-57.792c5.005,-1.957 50.739,-19.144 138.4,-64.143c8.307,-4.264 8.303,-4.274 8.409,-4.303c1.523,-0.416 2.995,-1.13 4.57,-1.244c0.721,-0.052 4.876,-0.353 8.589,2.825c1.829,1.566 1.857,1.578 2.944,3.73Z"/><path d="M2694.9,1052.85c0.809,1.601 5.452,10.789 1.646,22.362c-1.171,3.562 -3.04,6.977 -5.481,9.824c-5.402,6.302 -5.875,5.9 -13.577,8.986c-36.611,14.668 -101.942,40.069 -185.5,65.947c-24.507,7.59 -26.853,7.876 -39.119,11.795c-63.064,20.15 -84.618,25.427 -97.908,29.206c-38.281,10.884 -71.561,18.344 -77.703,20.086c-0.539,0.153 -35.474,10.071 -68.436,17.55c-21.887,4.967 -43.681,9.591 -75.063,14.432c-2.846,0.439 -5.957,-0.546 -6.452,-0.703c-6.349,-2.01 -8.964,-7.111 -9.414,-7.99c-3.163,-6.168 -1.352,-11.678 -1.035,-12.642c2.063,-6.276 7.117,-8.952 7.99,-9.414c3.636,-1.925 3.727,-1.881 7.844,-1.929c72.163,-0.84 124.59,-9.645 141.61,-12.471c1.342,-0.223 3.134,-0.52 16.618,-3.582c0.521,-0.118 16.067,-3.873 27.028,-6.845c27.467,-7.447 40.123,-11.624 43.572,-12.762c50.499,-16.667 81.235,-29.878 88.707,-33.022c2.252,-0.948 34.666,-15.995 60.746,-29.458c29.91,-15.442 77.976,-41.108 144.555,-82.327c3.962,-2.453 10.332,-2.868 11.26,-2.928c1.764,-0.115 11.962,-0.778 20.983,6.901c4.424,3.765 4.506,3.794 7.129,8.984Z"/><path d="M2679.45,890.009c0.331,0.655 2.23,4.416 0.673,9.151c-0.48,1.458 -1.245,2.856 -2.243,4.022c-1.027,1.2 -2.412,2.046 -3.714,2.939c-1.272,0.874 -8.021,3.609 -56.346,28.283c-11.257,5.747 -11.225,5.791 -22.411,11.67c-18.347,9.644 -44.397,27.032 -93.131,54.172c-2.739,1.526 -15.807,8.328 -16.397,8.616c-11.716,5.737 -14.217,6.796 -15.479,7.33c-7.455,3.157 -21.669,9.559 -55.741,19.673c-26.296,7.807 -48.622,12.331 -72.769,18.022c-33.476,7.889 -68.334,15.04 -116.75,19.793l-2.28,0.224c-1.567,-0.182 -3.199,-0.069 -4.7,-0.553c-4.65,-1.498 -6.563,-5.208 -6.894,-5.851c-2.316,-4.493 -0.99,-8.567 -0.759,-9.275c1.508,-4.633 5.209,-6.56 5.851,-6.894c3.121,-1.625 3.257,-1.244 6.769,-1.498c40.848,-2.951 73.968,-8.003 104.973,-15.432c13.329,-3.193 35.29,-9.024 81.731,-30.549c1.373,-0.636 1.386,-0.592 27.031,-12.973c15.011,-7.248 20.025,-9.667 40.399,-18.29c8.136,-3.444 8.122,-3.459 16.275,-6.845c4.632,-1.924 43.292,-18.201 69.21,-29.77c18.771,-8.378 18.675,-8.574 36.956,-17.959c0.417,-0.214 63.02,-33.146 63.643,-33.317c1.523,-0.417 2.994,-1.132 4.568,-1.246c0.722,-0.053 4.876,-0.355 8.59,2.825c1.829,1.567 1.858,1.579 2.945,3.732Z"/><path d="M2584.04,677.126c0.33,0.656 2.228,4.42 0.668,9.154c-0.481,1.458 -1.247,2.855 -2.247,4.02c-1.027,1.199 -2.414,2.042 -3.716,2.935c-1.039,0.712 -4.015,1.789 -4.375,1.919c-6.685,2.419 -6.699,2.357 -13.328,4.949c-17.148,6.705 -23.712,8.991 -51.195,19.561c-9.244,3.556 -9.261,3.494 -18.473,7.131c-13.636,5.383 -18.387,7.04 -29.706,12.47c-10.451,5.013 -10.518,4.852 -20.885,10.038c-10.229,5.116 -10.277,5.001 -20.496,10.152c-28.519,14.375 -55.871,26.965 -92.2,41.194c-0.969,0.38 -20.012,7.194 -29.93,10.159c-14.06,4.203 -20.572,5.939 -41.94,10.319c-1.145,0.235 -4.874,1.198 -25.159,4.353c-36.419,5.663 -70.823,7.328 -77.006,7.627c-36.476,1.765 -56.44,1.637 -73.709,1.52c-0.336,-0.002 -4.154,-0.028 -4.21,-0.035c-1.569,-0.216 -3.207,-0.146 -4.708,-0.652c-0.686,-0.231 -4.656,-1.568 -6.894,-5.851c-0.348,-0.666 -2.316,-4.432 -0.767,-9.37c0.217,-0.69 1.497,-4.77 5.851,-6.894c0.419,-0.204 1.129,-0.55 5.663,-1.35c7.774,-1.371 7.776,-1.35 43.009,-7.943c8.822,-1.65 8.837,-1.564 50.229,-10.092c2.114,-0.436 2.106,-0.44 26.396,-5.575c13.058,-2.761 13.025,-2.887 26.079,-5.649c12.951,-2.742 12.899,-2.946 25.866,-5.619c17.773,-3.665 17.702,-3.983 36.978,-7.545c8.401,-1.552 8.4,-1.516 16.809,-2.978c10.35,-1.799 10.309,-1.975 20.685,-3.65c42.347,-6.834 87.413,-17.038 102.729,-21.203c19.093,-5.191 19.077,-5.242 37.792,-11.66c2.585,-0.886 12.151,-4.85 15.714,-6.522c17.935,-8.412 26.977,-12.925 50.774,-26.309c1.19,-0.669 24.352,-14.248 29.602,-17.692c4.153,-2.725 7.662,-5.055 7.663,-5.055c3.842,-2.201 6.322,-2.38 6.906,-2.422c0.721,-0.052 4.876,-0.351 8.587,2.831c1.829,1.568 1.857,1.58 2.944,3.734Z"/><path d="M1901.27,566.283c-0.616,-0.39 -4.12,-2.615 -5.21,-7.474c-1.218,-5.432 1.53,-9.123 2.006,-9.762c41.288,-55.45 51.319,-97.493 54.749,-112.571c0.717,-3.153 2.475,-12.557 2.985,-19.659c0.47,-6.541 0.84,-13.338 -0.618,-27.609c-0.076,-0.738 -1.321,-10.068 -3.167,-17.412c-1.366,-5.44 -3.044,-12.197 -8.461,-25.107c-3.413,-8.137 -5.251,-11.236 -9.15,-18.284c-0.003,-0.006 -0.483,-7.961 -0.481,-7.978c1.097,-8.146 6.65,-12.415 7.614,-13.156c0.993,-0.764 6.727,-5.172 15.136,-4.039c8.146,1.097 12.415,6.65 13.156,7.614c4.037,5.251 3.558,5.646 3.714,12.264c0.031,1.293 0.13,5.522 0.044,16.176c-0.002,0.207 0.19,4.979 -1.204,24.478c-0.861,12.039 -2.978,28.669 -3.438,32.057c-0.193,1.425 -4.627,31.145 -6.572,41.581c-0.311,1.672 -1.318,9.096 -5.763,27.091c-11.12,45.02 -31.465,83.853 -31.706,84.34c-3.159,6.395 -6.138,11.973 -7.067,13.724c-0.974,1.837 -2.959,3.242 -3.27,3.462c-3.982,2.819 -8.111,2.102 -8.823,1.979c-0.378,-0.066 -2.442,-0.424 -4.474,-1.715Z"/><path d="M1995.69,689.283c-2.753,-1.745 -2.876,-1.871 -3.59,-5.056c-0.839,-3.74 -0.143,-3.777 1.758,-7.107c49.227,-86.206 72.745,-152.329 76.697,-163.081c1.157,-3.146 7.173,-19.513 13.433,-39.69c4.354,-14.035 6.277,-20.476 7.957,-35.462c3.59,-32.025 0.658,-79.469 -3.893,-103.267c-0.516,-2.7 -0.618,-2.723 -0.158,-5.428c0.122,-0.713 0.832,-4.89 4.535,-7.823c5.956,-4.716 11.925,-1.256 12.813,-0.741c1.341,0.777 2.566,1.806 3.547,3.005c1.991,2.434 1.828,2.555 2.78,5.548c4.624,14.538 14.081,51.798 14.169,94.199c0.052,25.139 -4.508,41.619 -5.478,45.124c-0.571,2.064 -5.672,18.537 -14.773,40.632c-8.779,21.314 -32.848,77.227 -82.623,152.885c-7.201,10.946 -16.107,23.774 -16.151,23.804c-4.635,3.212 -4.554,3.367 -5.031,3.474c-3.242,0.727 -5.582,-0.756 -5.992,-1.016Z"/><path d="M2132.23,831.01c-0.513,-0.526 -3.457,-3.543 -3.395,-8.528c0.019,-1.535 0.329,-3.098 0.931,-4.51c1.305,-3.063 1.635,-2.863 3.985,-5.232c0.022,-0.022 3.711,-4.072 8.682,-11.543c18.152,-27.278 33.745,-70.29 38.895,-83.535c2.345,-6.032 2.208,-6.079 4.726,-12.05c5.245,-12.44 5.367,-12.378 10.881,-24.704c1.434,-3.206 10.068,-22.503 16.982,-40.485c3.141,-8.169 5.366,-15.187 5.789,-16.521c1.033,-3.257 1.714,-4.811 6.229,-22.304c3.08,-11.937 13.393,-56.918 20.251,-112.55c0.377,-3.059 3.111,-25.235 4.454,-38.269c1.027,-9.976 6.474,-40.494 8.26,-68.289c0.292,-4.548 0.729,-5.674 0.909,-6.136c1.765,-4.546 5.612,-6.221 6.275,-6.51c4.659,-2.028 8.633,-0.446 9.326,-0.17c4.519,1.799 6.216,5.615 6.51,6.276c0.256,0.577 0.875,1.968 1.344,7.781c1.948,24.157 1.267,42.585 0.954,51.925c-0.107,3.18 -0.835,13.814 -1.421,18.656c-0.693,5.727 -3.278,23.239 -6.618,39.647c-7.53,36.988 -16.173,69.381 -25.752,103.036c-0.658,2.314 -7.395,25.983 -8.152,28.952c-1.847,7.235 -1.897,7.217 -3.616,14.488c-4.331,18.322 -7.534,33.685 -14.297,58.669c-2.308,8.528 -4.84,15.776 -5.313,17.131c-1.128,3.228 -1.352,4.348 -7.149,17.932c-1.681,3.941 -15.847,35.47 -32.667,60.753c-15.111,22.716 -25.199,31.556 -30.034,36.3c-0.524,0.515 -3.522,3.457 -8.528,3.395c-4.985,-0.062 -7.928,-3.079 -8.441,-3.605Z"/><path d="M2402.78,465.947c-0.432,36.912 -1.094,80.354 -6.254,130.17c-7.213,69.626 -18.038,114.326 -29.888,144.73c-0.114,0.294 -2.981,7.229 -6.753,14.271c-9.955,18.585 -18.237,26.867 -23.394,32.092c-0.517,0.524 -3.482,3.529 -8.498,3.54c-1.535,0.003 -3.102,-0.284 -4.523,-0.865c-4.671,-1.91 -6.313,-5.88 -6.597,-6.569c-1.866,-4.512 -0.293,-8.372 -0.02,-9.042c1.348,-3.308 1.878,-2.969 4.197,-5.685c10.832,-12.69 17.62,-29.73 22.35,-40.502c21.633,-49.262 35.056,-124.16 42.025,-161.721c1.605,-8.651 6.986,-38.946 8.626,-48.535c4.803,-28.078 4.873,-28.058 8.729,-51.884Z"/><path d="M2968.5,2740.69c0.652,0.337 4.388,2.27 5.895,7.036c0.462,1.463 0.657,3.045 0.528,4.574c-0.283,3.354 -0.604,3.291 -2.201,6.258c-64.608,120.095 -361.498,231.687 -709.79,300.443c-4.548,0.898 -66.518,13.01 -151.256,25.667c-369.919,55.252 -642.272,44.031 -704.045,42.234c-185.408,-5.396 -313.071,-25.703 -385.194,-39.579c-10.432,-2.008 -109.646,-15.436 -217.625,-50.334c-11.542,-3.73 -11.472,-3.946 -15.222,-4.843c-54.578,-13.067 -100.455,-30.993 -108.968,-34.32c-94.281,-36.84 -159.149,-82.312 -201.217,-117.045c-1.243,-1.027 -26.809,-23.615 -50.845,-50.41c-80.563,-89.806 -220.745,-291.628 -203.766,-699.542c1.223,-29.368 2.423,-44.091 4.877,-78.289c8.003,-111.508 26.819,-230.909 56.744,-354.539c0.297,-1.226 9.027,-36.987 22.555,-84.084c24.203,-84.261 68.316,-222.765 148.255,-389.957c46.751,-97.778 82.924,-156.895 89.17,-167.888c39.413,-69.359 64.3,-101.69 84.255,-128.165c140.273,-186.106 255.955,-291.185 295.214,-326.264c32.512,-29.051 58.277,-49.924 71.195,-60.273c0.09,-0.073 19.835,-15.665 46.076,-34.646c269.223,-194.743 615.91,-313.424 1054.71,-193.892l3.506,0.959c1.409,0.711 2.98,1.168 4.225,2.138c0.571,0.445 3.856,3.006 4.481,7.854c0.095,0.739 0.645,5.006 -2.457,8.987c-3.005,3.855 -7.137,4.388 -7.854,4.481c-3.709,0.478 -3.679,-0.26 -28.73,-6.622c-365.65,-92.859 -718.652,-31.877 -1055.19,229.349c-13.641,10.588 -126.148,93.071 -259.492,238.828c-68.012,74.343 -130.381,153.981 -148.195,178.543c-22.816,31.459 -43.127,64.449 -54.311,83.069c-0.139,0.232 -26,44.155 -59.61,113.103c-78.136,160.29 -121.232,295.675 -129.255,320.507c-31.688,98.071 -49.819,174.761 -61.121,223.775c-35.112,152.272 -46.979,270.865 -51.581,344.084c-0.051,0.813 -2.689,46.599 -1.875,104.172c4.661,329.596 110.383,501.998 174.073,583.771c9.25,11.877 40.422,51.341 86.922,91.965c9.646,8.426 58.255,57.51 145.758,104.45c16.363,8.778 64.908,34.424 137.983,58.199c3.684,1.199 3.723,1.071 7.299,2.548c28.253,11.664 100.734,41.485 219.782,69.072c2.325,0.539 45.895,9.278 106.679,17.603c35.285,4.833 140.428,18.677 288.78,22.37c20.903,0.521 54.172,0.501 58.883,0.498c397.746,-0.24 731.209,-71.416 781.649,-81.433c361.103,-71.714 638.177,-182.61 694.128,-289.315c0.34,-0.65 2.293,-4.374 7.035,-5.873c4.741,-1.498 8.486,0.439 9.137,0.776Z"/></g><g transform="matrix(2,0,0,2,-3297.4,-176.209)"><text x="2215.71px" y="1300.42px" style="font-family:'HelloRegular', 'Hello';font-size:230px;">Erin&apos;s</text><g transform="matrix(230,0,0,230,2876.73,1530.42)"></g><text x="2020.67px" y="1530.42px" style="font-family:'HelloRegular', 'Hello';font-size:230px;">Yarn Art</text></g><path d="M1751.27,1144.9l-957.874,398.786c0,0 -186.075,63.905 -161.052,138.552c23.516,70.153 201.848,-8.822 201.848,-8.822l936.357,-411.959l-19.279,-116.557Z" style="fill:#fff;stroke:#000;stroke-width:24px;"/><path d="M2125.24,993.725l5.504,105.065c-0,0 673.728,-284.348 799.291,-319.444c37.931,-10.602 -45.914,108.869 -45.914,108.869c-0,0 105.926,-37.276 147.387,-68.448c33.66,-25.307 54.656,-67.435 31.788,-117.801c-14.649,-32.264 -47.545,-68.293 -112.48,-48.582c-154.416,46.872 -825.576,340.341 -825.576,340.341Z" style="fill:#fff;stroke:#000;stroke-width:24px;"/></svg>